%TF.GenerationSoftware,KiCad,Pcbnew,9.0.5*%
%TF.CreationDate,2026-04-01T12:37:57+03:00*%
%TF.ProjectId,Splinch xiao,53706c69-6e63-4682-9078-69616f2e6b69,rev?*%
%TF.SameCoordinates,Original*%
%TF.FileFunction,Profile,NP*%
%FSLAX46Y46*%
G04 Gerber Fmt 4.6, Leading zero omitted, Abs format (unit mm)*
G04 Created by KiCad (PCBNEW 9.0.5) date 2026-04-01 12:37:57*
%MOMM*%
%LPD*%
G01*
G04 APERTURE LIST*
%TA.AperFunction,Profile*%
%ADD10C,0.050000*%
%TD*%
%ADD11C,0.050000*%
G04 APERTURE END LIST*
D10*
X167990625Y-53168750D02*
G75*
G02*
X166859375Y-54300025I-1131225J-50D01*
G01*
X331896875Y-126700000D02*
G75*
G02*
X327496875Y-126700000I-2200000J0D01*
G01*
X327496875Y-126700000D02*
G75*
G02*
X331896875Y-126700000I2200000J0D01*
G01*
X282246875Y-54253099D02*
X282246875Y-55996875D01*
X395371875Y-49728099D02*
X395371875Y-53121849D01*
X415734375Y-54253099D02*
X396503125Y-54253099D01*
X281115625Y-58825000D02*
G75*
G02*
X282246875Y-58825000I565625J0D01*
G01*
X304746875Y-53734375D02*
G75*
G02*
X300346875Y-53734375I-2200000J0D01*
G01*
X300346875Y-53734375D02*
G75*
G02*
X304746875Y-53734375I2200000J0D01*
G01*
X226815625Y-132356237D02*
X226815625Y-141406262D01*
X411044043Y-150668200D02*
X391725526Y-145491819D01*
X334284375Y-130046849D02*
G75*
G02*
X336546851Y-132309349I25J-2262451D01*
G01*
X372181250Y-142490599D02*
G75*
G02*
X372746901Y-143056224I-50J-565701D01*
G01*
X414603125Y-131090814D02*
X414603125Y-79140599D01*
X282246875Y-123871875D02*
X282246875Y-92762500D01*
X397571875Y-125568750D02*
G75*
G02*
X393171875Y-125568750I-2200000J0D01*
G01*
X393171875Y-125568750D02*
G75*
G02*
X397571875Y-125568750I2200000J0D01*
G01*
X281115625Y-89934375D02*
X281115625Y-58825000D01*
X281115625Y-123871875D02*
X281115625Y-92762500D01*
X281115625Y-128396875D02*
X281115625Y-126700000D01*
X283943750Y-130046849D02*
G75*
G02*
X282246851Y-128349974I-50J1696849D01*
G01*
X147628100Y-78056250D02*
G75*
G02*
X146496850Y-76925000I0J1131250D01*
G01*
X414603125Y-131090814D02*
X415372019Y-132983178D01*
X225684375Y-142537500D02*
X191181250Y-142537500D01*
X146496875Y-76925000D02*
X146496875Y-55431250D01*
D11*
X167990625Y-49775000D02*
X168144529Y-49750107D01*
X168298436Y-49725294D01*
X168452347Y-49700562D01*
X168606261Y-49675910D01*
X168760179Y-49651339D01*
X168914100Y-49626848D01*
X169068024Y-49602438D01*
X169221952Y-49578107D01*
X169375883Y-49553858D01*
X169529817Y-49529689D01*
X169683754Y-49505600D01*
X169837694Y-49481592D01*
X169991638Y-49457664D01*
X170145584Y-49433816D01*
X170299534Y-49410049D01*
X170453486Y-49386363D01*
X170607442Y-49362757D01*
X170761400Y-49339231D01*
X170915361Y-49315786D01*
X171069325Y-49292421D01*
X171223291Y-49269137D01*
X171377260Y-49245933D01*
X171531232Y-49222810D01*
X171685207Y-49199767D01*
X171839184Y-49176805D01*
X171993163Y-49153923D01*
X172147145Y-49131121D01*
X172301130Y-49108400D01*
X172455117Y-49085760D01*
X172609106Y-49063200D01*
X172763097Y-49040720D01*
X172917091Y-49018321D01*
X173071087Y-48996003D01*
X173225085Y-48973764D01*
X173379085Y-48951607D01*
X173533087Y-48929530D01*
X173687091Y-48907533D01*
X173841097Y-48885617D01*
X173995105Y-48863781D01*
X174149115Y-48842026D01*
X174303127Y-48820351D01*
X174457141Y-48798757D01*
X174611156Y-48777243D01*
X174765173Y-48755810D01*
X174919191Y-48734457D01*
X175073212Y-48713185D01*
X175227233Y-48691993D01*
X175381256Y-48670882D01*
X175535281Y-48649851D01*
X175689307Y-48628901D01*
X175843334Y-48608031D01*
X175997363Y-48587242D01*
X176151393Y-48566534D01*
X176305424Y-48545905D01*
X176459456Y-48525358D01*
X176613489Y-48504891D01*
X176767523Y-48484504D01*
X176921559Y-48464198D01*
X177075595Y-48443972D01*
X177229632Y-48423827D01*
X177383670Y-48403763D01*
X177537709Y-48383779D01*
X177691748Y-48363875D01*
X177845788Y-48344053D01*
X177999829Y-48324310D01*
X178153870Y-48304648D01*
X178307912Y-48285067D01*
X178461955Y-48265566D01*
X178615997Y-48246146D01*
X178770041Y-48226806D01*
X178924084Y-48207547D01*
X179078128Y-48188369D01*
X179232172Y-48169270D01*
X179386216Y-48150253D01*
X179540260Y-48131316D01*
X179694304Y-48112460D01*
X179848349Y-48093684D01*
X180002393Y-48074988D01*
X180156437Y-48056374D01*
X180310481Y-48037839D01*
X180464525Y-48019386D01*
X180618568Y-48001013D01*
X180772611Y-47982720D01*
X180926654Y-47964508D01*
X181080696Y-47946377D01*
X181234738Y-47928326D01*
X181388779Y-47910356D01*
X181542820Y-47892466D01*
X181696860Y-47874657D01*
X181850899Y-47856928D01*
X182004938Y-47839280D01*
X182158975Y-47821713D01*
X182313012Y-47804226D01*
X182467048Y-47786819D01*
X182621082Y-47769494D01*
X182775116Y-47752249D01*
X182929149Y-47735084D01*
X183083180Y-47718000D01*
X183237210Y-47700997D01*
X183391239Y-47684074D01*
X183545266Y-47667232D01*
X183699292Y-47650470D01*
X183853317Y-47633789D01*
X184007340Y-47617188D01*
X184161361Y-47600668D01*
X184315381Y-47584229D01*
X184469399Y-47567870D01*
X184623415Y-47551592D01*
X184777430Y-47535395D01*
X184931442Y-47519278D01*
X185085453Y-47503242D01*
X185239461Y-47487286D01*
X185393468Y-47471411D01*
X185547472Y-47455616D01*
X185701474Y-47439902D01*
X185855474Y-47424269D01*
X186009471Y-47408716D01*
X186163466Y-47393244D01*
X186317459Y-47377852D01*
X186471449Y-47362541D01*
X186625436Y-47347311D01*
X186779421Y-47332161D01*
X186933403Y-47317092D01*
X187087383Y-47302103D01*
X187241359Y-47287196D01*
X187395333Y-47272368D01*
X187549303Y-47257621D01*
X187703271Y-47242955D01*
X187857235Y-47228370D01*
X188011196Y-47213865D01*
X188165154Y-47199441D01*
X188319109Y-47185097D01*
X188473060Y-47170834D01*
X188627008Y-47156651D01*
X188780952Y-47142550D01*
X188934893Y-47128528D01*
X189088830Y-47114588D01*
X189242763Y-47100728D01*
X189396693Y-47086948D01*
X189550619Y-47073250D01*
X189704541Y-47059631D01*
X189858459Y-47046094D01*
X190012372Y-47032637D01*
X190166282Y-47019261D01*
X190320187Y-47005965D01*
X190474089Y-46992750D01*
X190627985Y-46979615D01*
X190781878Y-46966561D01*
X190935766Y-46953588D01*
X191089649Y-46940696D01*
X191243528Y-46927884D01*
X191397402Y-46915152D01*
X191551271Y-46902501D01*
X191705136Y-46889931D01*
X191858995Y-46877442D01*
X192012850Y-46865033D01*
X192166700Y-46852704D01*
X192320544Y-46840457D01*
X192474383Y-46828290D01*
X192628217Y-46816203D01*
X192782046Y-46804197D01*
X192935869Y-46792272D01*
X193089686Y-46780427D01*
X193243498Y-46768663D01*
X193397305Y-46756980D01*
X193551105Y-46745377D01*
X193704900Y-46733855D01*
X193858689Y-46722413D01*
X194012472Y-46711053D01*
X194166249Y-46699772D01*
X194320020Y-46688572D01*
X194473785Y-46677453D01*
X194627543Y-46666415D01*
X194781295Y-46655457D01*
X194935041Y-46644580D01*
X195088780Y-46633783D01*
X195242512Y-46623067D01*
X195396238Y-46612431D01*
X195549957Y-46601876D01*
X195703669Y-46591402D01*
X195857375Y-46581009D01*
X196011073Y-46570695D01*
X196164765Y-46560463D01*
X196318449Y-46550311D01*
X196472126Y-46540240D01*
X196625795Y-46530249D01*
X196779458Y-46520339D01*
X196933112Y-46510510D01*
X197086760Y-46500761D01*
X197240399Y-46491092D01*
X197394031Y-46481505D01*
X197547655Y-46471997D01*
X197701271Y-46462571D01*
X197854879Y-46453225D01*
X198008479Y-46443960D01*
X198162071Y-46434775D01*
X198315655Y-46425671D01*
X198469230Y-46416647D01*
X198622797Y-46407704D01*
X198776356Y-46398841D01*
X198929905Y-46390059D01*
X199083447Y-46381358D01*
X199236979Y-46372737D01*
X199390503Y-46364197D01*
X199544017Y-46355738D01*
X199697523Y-46347358D01*
X199851020Y-46339060D01*
X200004507Y-46330842D01*
X200157985Y-46322705D01*
X200311454Y-46314648D01*
X200464913Y-46306671D01*
X200618362Y-46298776D01*
X200771802Y-46290960D01*
X200925232Y-46283226D01*
X201078653Y-46275572D01*
X201232063Y-46267998D01*
X201385464Y-46260505D01*
X201538854Y-46253092D01*
X201692234Y-46245760D01*
X201845604Y-46238509D01*
X201998963Y-46231338D01*
X202152312Y-46224248D01*
X202305650Y-46217238D01*
X202458978Y-46210308D01*
X202612295Y-46203459D01*
X202765601Y-46196691D01*
X202918896Y-46190003D01*
X203072179Y-46183396D01*
X203225452Y-46176869D01*
X203378714Y-46170422D01*
X203531964Y-46164057D01*
X203685202Y-46157771D01*
X203838429Y-46151566D01*
X203991645Y-46145442D01*
X204144848Y-46139398D01*
X204298040Y-46133434D01*
X204451220Y-46127551D01*
X204604388Y-46121749D01*
X204757543Y-46116027D01*
X204910686Y-46110385D01*
X205063817Y-46104824D01*
X205216936Y-46099343D01*
X205370042Y-46093943D01*
X205523135Y-46088623D01*
X205676215Y-46083383D01*
X205829283Y-46078224D01*
X205982337Y-46073146D01*
X206135378Y-46068147D01*
X206288407Y-46063230D01*
X206441421Y-46058392D01*
X206594423Y-46053635D01*
X206747411Y-46048959D01*
X206900385Y-46044363D01*
X207053346Y-46039847D01*
X207206292Y-46035411D01*
X207359225Y-46031056D01*
X207512144Y-46026782D01*
X207665048Y-46022587D01*
X207817938Y-46018474D01*
X207970814Y-46014440D01*
X208123675Y-46010487D01*
X208276522Y-46006614D01*
X208429354Y-46002821D01*
X208582171Y-45999109D01*
X208734973Y-45995477D01*
X208887760Y-45991926D01*
X209040532Y-45988454D01*
X209193288Y-45985063D01*
X209346029Y-45981753D01*
X209498755Y-45978522D01*
X209651464Y-45975372D01*
X209804159Y-45972302D01*
X209956837Y-45969313D01*
X210109499Y-45966404D01*
X210262145Y-45963575D01*
X210414775Y-45960826D01*
X210567388Y-45958157D01*
X210719985Y-45955569D01*
X210872566Y-45953061D01*
X211025129Y-45950633D01*
X211177676Y-45948286D01*
X211330206Y-45946018D01*
X211482719Y-45943831D01*
X211635214Y-45941724D01*
X211787692Y-45939697D01*
X211940153Y-45937750D01*
X212092596Y-45935884D01*
X212245022Y-45934098D01*
X212397429Y-45932391D01*
X212549819Y-45930765D01*
X212702190Y-45929219D01*
X212854544Y-45927754D01*
X213006879Y-45926368D01*
X213159195Y-45925062D01*
X213311493Y-45923837D01*
X213463772Y-45922691D01*
X213616033Y-45921626D01*
X213768274Y-45920641D01*
X213920496Y-45919736D01*
X214072699Y-45918911D01*
X214224883Y-45918165D01*
X214377047Y-45917500D01*
X214529191Y-45916915D01*
X214681316Y-45916410D01*
X214833420Y-45915985D01*
X214985505Y-45915640D01*
X215137569Y-45915375D01*
X215289614Y-45915190D01*
X215441637Y-45915085D01*
X215593640Y-45915059D01*
X215745623Y-45915114D01*
X215897584Y-45915249D01*
X216049524Y-45915463D01*
X216201444Y-45915758D01*
X216353342Y-45916132D01*
X216505218Y-45916586D01*
X216657073Y-45917120D01*
X216808906Y-45917734D01*
X216960718Y-45918428D01*
X217112507Y-45919202D01*
X217264274Y-45920055D01*
X217416019Y-45920988D01*
X217567741Y-45922001D01*
X217719441Y-45923094D01*
X217871118Y-45924267D01*
X218022772Y-45925519D01*
X218174403Y-45926851D01*
X218326011Y-45928263D01*
X218477596Y-45929754D01*
X218629157Y-45931326D01*
X218780694Y-45932977D01*
X218932208Y-45934707D01*
X219083698Y-45936517D01*
X219235163Y-45938407D01*
X219386605Y-45940377D01*
X219538022Y-45942426D01*
X219689414Y-45944555D01*
X219840782Y-45946763D01*
X219992124Y-45949051D01*
X220143442Y-45951418D01*
X220294735Y-45953865D01*
X220446002Y-45956392D01*
X220597244Y-45958998D01*
X220748460Y-45961683D01*
X220899650Y-45964448D01*
X221050814Y-45967293D01*
X221201952Y-45970216D01*
X221353064Y-45973220D01*
X221504149Y-45976303D01*
X221655207Y-45979465D01*
X221806239Y-45982706D01*
X221957244Y-45986027D01*
X222108221Y-45989427D01*
X222259172Y-45992907D01*
X222410094Y-45996466D01*
X222560990Y-46000104D01*
X222711857Y-46003821D01*
X222862696Y-46007618D01*
X223013507Y-46011494D01*
X223164290Y-46015449D01*
X223315044Y-46019483D01*
X223465770Y-46023597D01*
X223616466Y-46027790D01*
X223767134Y-46032062D01*
X223917772Y-46036413D01*
X224068381Y-46040843D01*
X224218961Y-46045352D01*
X224369511Y-46049940D01*
X224520030Y-46054607D01*
X224670520Y-46059354D01*
X224820979Y-46064179D01*
X224971408Y-46069083D01*
X225121806Y-46074067D01*
X225272173Y-46079129D01*
X225422509Y-46084270D01*
X225572814Y-46089490D01*
X225723088Y-46094789D01*
X225873330Y-46100166D01*
X226023540Y-46105623D01*
X226173718Y-46111158D01*
X226323864Y-46116773D01*
X226473977Y-46122466D01*
X226624058Y-46128237D01*
X226774107Y-46134088D01*
X226924122Y-46140017D01*
X227074104Y-46146025D01*
X227224053Y-46152111D01*
X227373968Y-46158276D01*
X227523850Y-46164520D01*
X227673697Y-46170842D01*
X227823511Y-46177243D01*
X227973290Y-46183722D01*
X228123034Y-46190280D01*
X228272744Y-46196916D01*
X228422418Y-46203630D01*
X228572058Y-46210424D01*
X228721662Y-46217295D01*
X228871231Y-46224245D01*
X229020764Y-46231273D01*
X229170260Y-46238380D01*
X229319721Y-46245564D01*
X229469145Y-46252827D01*
X229618533Y-46260169D01*
X229767883Y-46267588D01*
X229917197Y-46275086D01*
X230066473Y-46282662D01*
X230215712Y-46290316D01*
X230364913Y-46298047D01*
X230514076Y-46305858D01*
X230663201Y-46313746D01*
X230812287Y-46321712D01*
X230961335Y-46329756D01*
X231110344Y-46337878D01*
X231259314Y-46346077D01*
X231408245Y-46354355D01*
X231557136Y-46362711D01*
X231705988Y-46371144D01*
X231854799Y-46379655D01*
X232003570Y-46388244D01*
X232152301Y-46396911D01*
X232300991Y-46405655D01*
X232449640Y-46414477D01*
X232598248Y-46423376D01*
X232746815Y-46432353D01*
X232895340Y-46441408D01*
X233043823Y-46450540D01*
X233192264Y-46459750D01*
X233340662Y-46469037D01*
X233489018Y-46478401D01*
X233637332Y-46487843D01*
X233785602Y-46497362D01*
X233933828Y-46506958D01*
X234082011Y-46516632D01*
X234230151Y-46526383D01*
X234378246Y-46536211D01*
X234526297Y-46546116D01*
X234674303Y-46556098D01*
X234822264Y-46566158D01*
X234970180Y-46576294D01*
X235118051Y-46586507D01*
X235265876Y-46596798D01*
X235413655Y-46607165D01*
X235561389Y-46617609D01*
X235709075Y-46628130D01*
X235856715Y-46638727D01*
X236004308Y-46649402D01*
X236151854Y-46660153D01*
X236299352Y-46670981D01*
X236446803Y-46681885D01*
X236594205Y-46692866D01*
X236741559Y-46703923D01*
X236888864Y-46715057D01*
X237036121Y-46726268D01*
X237183328Y-46737554D01*
X237330486Y-46748917D01*
X237477595Y-46760357D01*
X237624653Y-46771872D01*
X237771661Y-46783464D01*
X237918618Y-46795132D01*
X238065524Y-46806876D01*
X238212379Y-46818696D01*
X238359183Y-46830593D01*
X238505935Y-46842565D01*
X238652635Y-46854613D01*
X238799283Y-46866737D01*
X238945878Y-46878936D01*
X239092420Y-46891212D01*
X239238908Y-46903563D01*
X239385343Y-46915990D01*
X239531725Y-46928493D01*
X239678052Y-46941071D01*
X239824324Y-46953724D01*
X239970542Y-46966453D01*
X240116705Y-46979258D01*
X240262812Y-46992137D01*
X240408863Y-47005092D01*
X240554859Y-47018123D01*
X240700798Y-47031228D01*
X240846680Y-47044409D01*
X240992505Y-47057664D01*
X241138273Y-47070995D01*
X241283983Y-47084401D01*
X241429636Y-47097881D01*
X241575229Y-47111436D01*
X241720764Y-47125067D01*
X241866240Y-47138771D01*
X242011657Y-47152551D01*
X242157014Y-47166405D01*
X242302311Y-47180333D01*
X242447547Y-47194337D01*
X242592723Y-47208414D01*
X242737838Y-47222566D01*
X242882891Y-47236792D01*
X243027882Y-47251092D01*
X243172812Y-47265466D01*
X243317678Y-47279915D01*
X243462482Y-47294437D01*
X243607223Y-47309034D01*
X243751900Y-47323704D01*
X243896513Y-47338448D01*
X244041061Y-47353266D01*
X244185545Y-47368158D01*
X244329964Y-47383123D01*
X244474317Y-47398161D01*
X244618605Y-47413274D01*
X244762826Y-47428459D01*
X244906981Y-47443718D01*
X245051068Y-47459050D01*
X245195089Y-47474455D01*
X245339041Y-47489933D01*
X245482925Y-47505485D01*
X245626741Y-47521109D01*
X245770488Y-47536806D01*
X245914165Y-47552576D01*
X246057773Y-47568418D01*
X246201310Y-47584334D01*
X246344777Y-47600321D01*
X246488173Y-47616382D01*
X246631498Y-47632514D01*
X246774750Y-47648719D01*
X246917931Y-47664996D01*
X247061038Y-47681345D01*
X247204073Y-47697767D01*
X247347034Y-47714260D01*
X247489921Y-47730825D01*
X247632734Y-47747462D01*
X247775472Y-47764170D01*
X247918135Y-47780951D01*
X248060721Y-47797802D01*
X248203232Y-47814725D01*
X248345666Y-47831720D01*
X248488024Y-47848786D01*
X248630303Y-47865922D01*
X248772505Y-47883130D01*
X248914628Y-47900409D01*
X249056672Y-47917759D01*
X249198637Y-47935179D01*
X249340522Y-47952671D01*
X249482327Y-47970232D01*
X249624051Y-47987865D01*
X249765694Y-48005567D01*
X249907255Y-48023340D01*
X250048734Y-48041183D01*
X250190130Y-48059096D01*
X250331442Y-48077079D01*
X250472672Y-48095132D01*
X250613816Y-48113255D01*
X250754876Y-48131447D01*
X250895851Y-48149709D01*
X251036741Y-48168040D01*
X251177543Y-48186441D01*
X251318260Y-48204910D01*
X251458888Y-48223449D01*
X251599429Y-48242057D01*
X251739882Y-48260734D01*
X251880246Y-48279479D01*
X252020520Y-48298293D01*
X252160704Y-48317176D01*
X252300798Y-48336127D01*
X252440801Y-48355146D01*
X252580712Y-48374233D01*
X252720530Y-48393389D01*
X252860257Y-48412612D01*
X252999889Y-48431903D01*
X253139428Y-48451262D01*
X253278873Y-48470688D01*
X253418222Y-48490181D01*
X253557476Y-48509742D01*
X253696633Y-48529370D01*
X253835694Y-48549065D01*
X253974657Y-48568827D01*
X254113522Y-48588655D01*
X254252289Y-48608550D01*
X254390956Y-48628511D01*
X254529524Y-48648539D01*
X254667991Y-48668633D01*
X254806356Y-48688793D01*
X254944621Y-48709019D01*
X255082782Y-48729310D01*
X255220841Y-48749667D01*
X255358796Y-48770090D01*
X255496647Y-48790578D01*
X255634393Y-48811130D01*
X255772033Y-48831748D01*
X255909567Y-48852431D01*
X256046994Y-48873178D01*
X256184313Y-48893990D01*
X256321524Y-48914866D01*
X256458625Y-48935806D01*
X256595617Y-48956811D01*
X256732499Y-48977879D01*
X256869269Y-48999010D01*
X257005928Y-49020206D01*
X257142474Y-49041464D01*
X257278907Y-49062786D01*
X257415226Y-49084171D01*
X257551429Y-49105618D01*
X257687518Y-49127128D01*
X257823490Y-49148701D01*
X257959345Y-49170336D01*
X258095082Y-49192033D01*
X258230701Y-49213792D01*
X258366200Y-49235612D01*
X258501580Y-49257494D01*
X258636838Y-49279437D01*
X258771975Y-49301442D01*
X258906989Y-49323507D01*
X259041880Y-49345633D01*
X259176646Y-49367820D01*
X259311288Y-49390067D01*
X259445804Y-49412374D01*
X259580193Y-49434741D01*
X259714454Y-49457167D01*
X259848588Y-49479653D01*
X259982592Y-49502199D01*
X260116466Y-49524803D01*
X260250209Y-49547466D01*
X260383820Y-49570188D01*
X260517298Y-49592969D01*
X260650643Y-49615807D01*
X260783853Y-49638703D01*
X260916928Y-49661657D01*
X261049866Y-49684669D01*
X261182666Y-49707737D01*
X261315329Y-49730863D01*
X261447852Y-49754045D01*
X261580235Y-49777284D01*
X261712476Y-49800579D01*
X261844575Y-49823930D01*
X261976531Y-49847337D01*
X262108343Y-49870799D01*
X262240010Y-49894316D01*
X262371530Y-49917888D01*
X262502903Y-49941515D01*
X262634128Y-49965196D01*
X262765203Y-49988932D01*
X262896127Y-50012721D01*
X263026900Y-50036564D01*
X263157521Y-50060460D01*
X263287987Y-50084409D01*
X263418299Y-50108411D01*
X263548454Y-50132465D01*
X263678453Y-50156571D01*
X263808293Y-50180729D01*
X263937973Y-50204938D01*
X264067493Y-50229199D01*
X264196852Y-50253510D01*
X264326047Y-50277872D01*
X264455077Y-50302285D01*
X264583943Y-50326747D01*
X264712641Y-50351258D01*
X264841172Y-50375819D01*
X264969533Y-50400429D01*
X265097724Y-50425087D01*
X265225743Y-50449793D01*
X265353588Y-50474547D01*
X265481260Y-50499349D01*
X265608755Y-50524198D01*
X265736073Y-50549093D01*
X265863213Y-50574035D01*
X265990173Y-50599023D01*
X266116951Y-50624056D01*
X266243547Y-50649135D01*
X266369958Y-50674258D01*
X266496184Y-50699426D01*
X266622222Y-50724637D01*
X266748072Y-50749893D01*
X266873731Y-50775191D01*
X266999199Y-50800532D01*
X267124474Y-50825916D01*
X267249554Y-50851341D01*
X267374437Y-50876808D01*
X267499123Y-50902316D01*
X267623609Y-50927864D01*
X267747893Y-50953453D01*
X267871975Y-50979081D01*
X267995851Y-51004748D01*
X268119522Y-51030454D01*
X268242984Y-51056198D01*
X268366237Y-51081980D01*
X268489277Y-51107799D01*
X268612105Y-51133654D01*
X268734717Y-51159546D01*
X268857111Y-51185473D01*
X268979287Y-51211435D01*
X269101242Y-51237432D01*
X269222974Y-51263463D01*
X269344481Y-51289527D01*
X269465761Y-51315624D01*
X269586812Y-51341753D01*
X269707633Y-51367914D01*
X269828220Y-51394106D01*
X269948572Y-51420329D01*
X270068687Y-51446581D01*
X270188563Y-51472863D01*
X270308197Y-51499173D01*
X270427587Y-51525511D01*
X270546731Y-51551877D01*
X270665626Y-51578269D01*
X270784270Y-51604687D01*
X270902662Y-51631130D01*
X271020798Y-51657598D01*
X271138675Y-51684089D01*
X271256292Y-51710604D01*
X271373646Y-51737141D01*
X271490735Y-51763699D01*
X271607555Y-51790279D01*
X271724104Y-51816878D01*
X271840379Y-51843497D01*
X271956378Y-51870134D01*
X272072098Y-51896788D01*
X272187535Y-51923459D01*
X272302688Y-51950147D01*
X272417553Y-51976849D01*
X272532126Y-52003565D01*
X272646406Y-52030294D01*
X272760389Y-52057036D01*
X272874071Y-52083789D01*
X272987450Y-52110552D01*
X273100522Y-52137325D01*
X273213283Y-52164106D01*
X273325732Y-52190894D01*
X273437863Y-52217689D01*
X273549673Y-52244488D01*
X273661160Y-52271292D01*
X273772318Y-52298099D01*
X273883144Y-52324908D01*
X273993636Y-52351717D01*
X274103787Y-52378526D01*
X274213595Y-52405333D01*
X274323056Y-52432137D01*
X274432164Y-52458937D01*
X274540917Y-52485731D01*
X274649309Y-52512518D01*
X274757337Y-52539298D01*
X274864995Y-52566067D01*
X274972279Y-52592825D01*
X275079184Y-52619571D01*
X275185705Y-52646302D01*
X275291837Y-52673018D01*
X275397576Y-52699717D01*
X275502915Y-52726397D01*
X275607850Y-52753056D01*
X275712375Y-52779694D01*
X275816484Y-52806307D01*
X275920172Y-52832894D01*
X276023432Y-52859454D01*
X276126259Y-52885984D01*
X276228646Y-52912483D01*
X276330587Y-52938948D01*
X276432074Y-52965378D01*
X276533102Y-52991770D01*
X276633663Y-53018122D01*
X276733751Y-53044432D01*
X276833356Y-53070697D01*
X276932473Y-53096916D01*
X277031093Y-53123085D01*
X277129208Y-53149202D01*
X277226809Y-53175264D01*
X277323888Y-53201269D01*
X277420435Y-53227213D01*
X277516442Y-53253095D01*
X277611900Y-53278910D01*
X277706797Y-53304655D01*
X277801124Y-53330328D01*
X277894869Y-53355925D01*
X277988023Y-53381443D01*
X278080573Y-53406877D01*
X278172508Y-53432224D01*
X278263815Y-53457479D01*
X278354480Y-53482640D01*
X278444492Y-53507701D01*
X278533834Y-53532657D01*
X278622494Y-53557505D01*
X278710454Y-53582239D01*
X278797700Y-53606854D01*
X278884215Y-53631345D01*
X278969980Y-53655705D01*
X279054977Y-53679929D01*
X279139186Y-53704011D01*
X279222587Y-53727943D01*
X279305157Y-53751719D01*
X279386875Y-53775331D01*
X279467714Y-53798772D01*
X279547650Y-53822031D01*
X279626653Y-53845102D01*
X279704696Y-53867973D01*
X279781746Y-53890636D01*
X279857768Y-53913077D01*
X279932727Y-53935287D01*
X280006583Y-53957251D01*
X280079293Y-53978955D01*
X280150810Y-54000385D01*
X280221084Y-54021523D01*
X280290057Y-54042352D01*
X280357669Y-54062850D01*
X280423851Y-54082996D01*
X280488525Y-54102763D01*
X280551605Y-54122124D01*
X280612991Y-54141044D01*
X280672569Y-54159488D01*
X280730207Y-54177411D01*
X280785747Y-54194760D01*
X280838998Y-54211473D01*
X280889727Y-54227473D01*
X280937635Y-54242660D01*
X280982329Y-54256903D01*
X281023257Y-54270021D01*
X281059591Y-54281737D01*
X281089906Y-54291578D01*
X281111089Y-54298506D01*
X281115625Y-54300000D01*
D10*
X282246875Y-89934375D02*
G75*
G02*
X281115625Y-89934375I-565625J0D01*
G01*
X226815625Y-132356250D02*
G75*
G02*
X229078125Y-130093825I2262575J-150D01*
G01*
X356218750Y-121609375D02*
G75*
G02*
X351818750Y-121609375I-2200000J0D01*
G01*
X351818750Y-121609375D02*
G75*
G02*
X356218750Y-121609375I2200000J0D01*
G01*
X148759375Y-131137715D02*
X147990484Y-133030080D01*
X235865677Y-126747011D02*
G75*
G02*
X231465677Y-126747011I-2200000J0D01*
G01*
X231465677Y-126747011D02*
G75*
G02*
X235865677Y-126747011I2200000J0D01*
G01*
X173646875Y-143668750D02*
X171636974Y-145538720D01*
X415372019Y-132983178D02*
X411044043Y-150668200D01*
X281115625Y-128396875D02*
G75*
G02*
X279418750Y-130093725I-1696825J-25D01*
G01*
X282246875Y-123871875D02*
G75*
G02*
X281115625Y-123871875I-565625J0D01*
G01*
X416865625Y-76878099D02*
G75*
G02*
X415734400Y-78009325I-1131225J-1D01*
G01*
X373312471Y-143621893D02*
G75*
G02*
X372746881Y-143065325I29J565693D01*
G01*
X170190677Y-125615761D02*
G75*
G02*
X165790677Y-125615761I-2200000J0D01*
G01*
X165790677Y-125615761D02*
G75*
G02*
X170190677Y-125615761I2200000J0D01*
G01*
D11*
X395371875Y-49728099D02*
X395217971Y-49703206D01*
X395064064Y-49678393D01*
X394910153Y-49653661D01*
X394756239Y-49629009D01*
X394602321Y-49604438D01*
X394448400Y-49579947D01*
X394294476Y-49555537D01*
X394140548Y-49531206D01*
X393986617Y-49506957D01*
X393832683Y-49482788D01*
X393678746Y-49458699D01*
X393524806Y-49434691D01*
X393370862Y-49410763D01*
X393216916Y-49386915D01*
X393062966Y-49363148D01*
X392909014Y-49339462D01*
X392755058Y-49315856D01*
X392601100Y-49292330D01*
X392447139Y-49268885D01*
X392293175Y-49245520D01*
X392139209Y-49222236D01*
X391985240Y-49199032D01*
X391831268Y-49175909D01*
X391677293Y-49152866D01*
X391523316Y-49129904D01*
X391369337Y-49107022D01*
X391215355Y-49084220D01*
X391061370Y-49061499D01*
X390907383Y-49038859D01*
X390753394Y-49016299D01*
X390599403Y-48993819D01*
X390445409Y-48971420D01*
X390291413Y-48949102D01*
X390137415Y-48926863D01*
X389983415Y-48904706D01*
X389829413Y-48882629D01*
X389675409Y-48860632D01*
X389521403Y-48838716D01*
X389367395Y-48816880D01*
X389213385Y-48795125D01*
X389059373Y-48773450D01*
X388905359Y-48751856D01*
X388751344Y-48730342D01*
X388597327Y-48708909D01*
X388443309Y-48687556D01*
X388289288Y-48666284D01*
X388135267Y-48645092D01*
X387981244Y-48623981D01*
X387827219Y-48602950D01*
X387673193Y-48582000D01*
X387519166Y-48561130D01*
X387365137Y-48540341D01*
X387211107Y-48519633D01*
X387057076Y-48499004D01*
X386903044Y-48478457D01*
X386749011Y-48457990D01*
X386594977Y-48437603D01*
X386440941Y-48417297D01*
X386286905Y-48397071D01*
X386132868Y-48376926D01*
X385978830Y-48356862D01*
X385824791Y-48336878D01*
X385670752Y-48316974D01*
X385516712Y-48297152D01*
X385362671Y-48277409D01*
X385208630Y-48257747D01*
X385054588Y-48238166D01*
X384900545Y-48218665D01*
X384746503Y-48199245D01*
X384592459Y-48179905D01*
X384438416Y-48160646D01*
X384284372Y-48141468D01*
X384130328Y-48122369D01*
X383976284Y-48103352D01*
X383822240Y-48084415D01*
X383668196Y-48065559D01*
X383514151Y-48046783D01*
X383360107Y-48028087D01*
X383206063Y-48009473D01*
X383052019Y-47990938D01*
X382897975Y-47972485D01*
X382743932Y-47954112D01*
X382589889Y-47935819D01*
X382435846Y-47917607D01*
X382281804Y-47899476D01*
X382127762Y-47881425D01*
X381973721Y-47863455D01*
X381819680Y-47845565D01*
X381665640Y-47827756D01*
X381511601Y-47810027D01*
X381357562Y-47792379D01*
X381203525Y-47774812D01*
X381049488Y-47757325D01*
X380895452Y-47739918D01*
X380741418Y-47722593D01*
X380587384Y-47705348D01*
X380433351Y-47688183D01*
X380279320Y-47671099D01*
X380125290Y-47654096D01*
X379971261Y-47637173D01*
X379817234Y-47620331D01*
X379663208Y-47603569D01*
X379509183Y-47586888D01*
X379355160Y-47570287D01*
X379201139Y-47553767D01*
X379047119Y-47537328D01*
X378893101Y-47520969D01*
X378739085Y-47504691D01*
X378585070Y-47488494D01*
X378431058Y-47472377D01*
X378277047Y-47456341D01*
X378123039Y-47440385D01*
X377969032Y-47424510D01*
X377815028Y-47408715D01*
X377661026Y-47393001D01*
X377507026Y-47377368D01*
X377353029Y-47361815D01*
X377199034Y-47346343D01*
X377045041Y-47330951D01*
X376891051Y-47315640D01*
X376737064Y-47300410D01*
X376583079Y-47285260D01*
X376429097Y-47270191D01*
X376275117Y-47255202D01*
X376121141Y-47240295D01*
X375967167Y-47225467D01*
X375813197Y-47210720D01*
X375659229Y-47196054D01*
X375505265Y-47181469D01*
X375351304Y-47166964D01*
X375197346Y-47152540D01*
X375043391Y-47138196D01*
X374889440Y-47123933D01*
X374735492Y-47109750D01*
X374581548Y-47095649D01*
X374427607Y-47081627D01*
X374273670Y-47067687D01*
X374119737Y-47053827D01*
X373965807Y-47040047D01*
X373811881Y-47026349D01*
X373657959Y-47012730D01*
X373504041Y-46999193D01*
X373350128Y-46985736D01*
X373196218Y-46972360D01*
X373042313Y-46959064D01*
X372888411Y-46945849D01*
X372734515Y-46932714D01*
X372580622Y-46919660D01*
X372426734Y-46906687D01*
X372272851Y-46893795D01*
X372118972Y-46880983D01*
X371965098Y-46868251D01*
X371811229Y-46855600D01*
X371657364Y-46843030D01*
X371503505Y-46830541D01*
X371349650Y-46818132D01*
X371195800Y-46805803D01*
X371041956Y-46793556D01*
X370888117Y-46781389D01*
X370734283Y-46769302D01*
X370580454Y-46757296D01*
X370426631Y-46745371D01*
X370272814Y-46733526D01*
X370119002Y-46721762D01*
X369965195Y-46710079D01*
X369811395Y-46698476D01*
X369657600Y-46686954D01*
X369503811Y-46675512D01*
X369350028Y-46664152D01*
X369196251Y-46652871D01*
X369042480Y-46641671D01*
X368888715Y-46630552D01*
X368734957Y-46619514D01*
X368581205Y-46608556D01*
X368427459Y-46597679D01*
X368273720Y-46586882D01*
X368119988Y-46576166D01*
X367966262Y-46565530D01*
X367812543Y-46554975D01*
X367658831Y-46544501D01*
X367505125Y-46534108D01*
X367351427Y-46523794D01*
X367197735Y-46513562D01*
X367044051Y-46503410D01*
X366890374Y-46493339D01*
X366736705Y-46483348D01*
X366583042Y-46473438D01*
X366429388Y-46463609D01*
X366275740Y-46453860D01*
X366122101Y-46444191D01*
X365968469Y-46434604D01*
X365814845Y-46425096D01*
X365661229Y-46415670D01*
X365507621Y-46406324D01*
X365354021Y-46397059D01*
X365200429Y-46387874D01*
X365046845Y-46378770D01*
X364893270Y-46369746D01*
X364739703Y-46360803D01*
X364586144Y-46351940D01*
X364432595Y-46343158D01*
X364279053Y-46334457D01*
X364125521Y-46325836D01*
X363971997Y-46317296D01*
X363818483Y-46308837D01*
X363664977Y-46300457D01*
X363511480Y-46292159D01*
X363357993Y-46283941D01*
X363204515Y-46275804D01*
X363051046Y-46267747D01*
X362897587Y-46259770D01*
X362744138Y-46251875D01*
X362590698Y-46244059D01*
X362437268Y-46236325D01*
X362283847Y-46228671D01*
X362130437Y-46221097D01*
X361977036Y-46213604D01*
X361823646Y-46206191D01*
X361670266Y-46198859D01*
X361516896Y-46191608D01*
X361363537Y-46184437D01*
X361210188Y-46177347D01*
X361056850Y-46170337D01*
X360903522Y-46163407D01*
X360750205Y-46156558D01*
X360596899Y-46149790D01*
X360443604Y-46143102D01*
X360290321Y-46136495D01*
X360137048Y-46129968D01*
X359983786Y-46123521D01*
X359830536Y-46117156D01*
X359677298Y-46110870D01*
X359524071Y-46104665D01*
X359370855Y-46098541D01*
X359217652Y-46092497D01*
X359064460Y-46086533D01*
X358911280Y-46080650D01*
X358758112Y-46074848D01*
X358604957Y-46069126D01*
X358451814Y-46063484D01*
X358298683Y-46057923D01*
X358145564Y-46052442D01*
X357992458Y-46047042D01*
X357839365Y-46041722D01*
X357686285Y-46036482D01*
X357533217Y-46031323D01*
X357380163Y-46026245D01*
X357227122Y-46021246D01*
X357074093Y-46016329D01*
X356921079Y-46011491D01*
X356768077Y-46006734D01*
X356615089Y-46002058D01*
X356462115Y-45997462D01*
X356309154Y-45992946D01*
X356156208Y-45988510D01*
X356003275Y-45984155D01*
X355850356Y-45979881D01*
X355697452Y-45975686D01*
X355544562Y-45971573D01*
X355391686Y-45967539D01*
X355238825Y-45963586D01*
X355085978Y-45959713D01*
X354933146Y-45955920D01*
X354780329Y-45952208D01*
X354627527Y-45948576D01*
X354474740Y-45945025D01*
X354321968Y-45941553D01*
X354169212Y-45938162D01*
X354016471Y-45934852D01*
X353863745Y-45931621D01*
X353711036Y-45928471D01*
X353558341Y-45925401D01*
X353405663Y-45922412D01*
X353253001Y-45919503D01*
X353100355Y-45916674D01*
X352947725Y-45913925D01*
X352795112Y-45911256D01*
X352642515Y-45908668D01*
X352489934Y-45906160D01*
X352337371Y-45903732D01*
X352184824Y-45901385D01*
X352032294Y-45899117D01*
X351879781Y-45896930D01*
X351727286Y-45894823D01*
X351574808Y-45892796D01*
X351422347Y-45890849D01*
X351269904Y-45888983D01*
X351117478Y-45887197D01*
X350965071Y-45885490D01*
X350812681Y-45883864D01*
X350660310Y-45882318D01*
X350507956Y-45880853D01*
X350355621Y-45879467D01*
X350203305Y-45878161D01*
X350051007Y-45876936D01*
X349898728Y-45875790D01*
X349746467Y-45874725D01*
X349594226Y-45873740D01*
X349442004Y-45872835D01*
X349289801Y-45872010D01*
X349137617Y-45871264D01*
X348985453Y-45870599D01*
X348833309Y-45870014D01*
X348681184Y-45869509D01*
X348529080Y-45869084D01*
X348376995Y-45868739D01*
X348224931Y-45868474D01*
X348072886Y-45868289D01*
X347920863Y-45868184D01*
X347768860Y-45868158D01*
X347616877Y-45868213D01*
X347464916Y-45868348D01*
X347312976Y-45868562D01*
X347161056Y-45868857D01*
X347009158Y-45869231D01*
X346857282Y-45869685D01*
X346705427Y-45870219D01*
X346553594Y-45870833D01*
X346401782Y-45871527D01*
X346249993Y-45872301D01*
X346098226Y-45873154D01*
X345946481Y-45874087D01*
X345794759Y-45875100D01*
X345643059Y-45876193D01*
X345491382Y-45877366D01*
X345339728Y-45878618D01*
X345188097Y-45879950D01*
X345036489Y-45881362D01*
X344884904Y-45882853D01*
X344733343Y-45884425D01*
X344581806Y-45886076D01*
X344430292Y-45887806D01*
X344278802Y-45889616D01*
X344127337Y-45891506D01*
X343975895Y-45893476D01*
X343824478Y-45895525D01*
X343673086Y-45897654D01*
X343521718Y-45899862D01*
X343370376Y-45902150D01*
X343219058Y-45904517D01*
X343067765Y-45906964D01*
X342916498Y-45909491D01*
X342765256Y-45912097D01*
X342614040Y-45914782D01*
X342462850Y-45917547D01*
X342311686Y-45920392D01*
X342160548Y-45923315D01*
X342009436Y-45926319D01*
X341858351Y-45929402D01*
X341707293Y-45932564D01*
X341556261Y-45935805D01*
X341405256Y-45939126D01*
X341254279Y-45942526D01*
X341103328Y-45946006D01*
X340952406Y-45949565D01*
X340801510Y-45953203D01*
X340650643Y-45956920D01*
X340499804Y-45960717D01*
X340348993Y-45964593D01*
X340198210Y-45968548D01*
X340047456Y-45972582D01*
X339896730Y-45976696D01*
X339746034Y-45980889D01*
X339595366Y-45985161D01*
X339444728Y-45989512D01*
X339294119Y-45993942D01*
X339143539Y-45998451D01*
X338992989Y-46003039D01*
X338842470Y-46007706D01*
X338691980Y-46012453D01*
X338541521Y-46017278D01*
X338391092Y-46022182D01*
X338240694Y-46027166D01*
X338090327Y-46032228D01*
X337939991Y-46037369D01*
X337789686Y-46042589D01*
X337639412Y-46047888D01*
X337489170Y-46053265D01*
X337338960Y-46058722D01*
X337188782Y-46064257D01*
X337038636Y-46069872D01*
X336888523Y-46075565D01*
X336738442Y-46081336D01*
X336588393Y-46087187D01*
X336438378Y-46093116D01*
X336288396Y-46099124D01*
X336138447Y-46105210D01*
X335988532Y-46111375D01*
X335838650Y-46117619D01*
X335688803Y-46123941D01*
X335538989Y-46130342D01*
X335389210Y-46136821D01*
X335239466Y-46143379D01*
X335089756Y-46150015D01*
X334940082Y-46156729D01*
X334790442Y-46163523D01*
X334640838Y-46170394D01*
X334491269Y-46177344D01*
X334341736Y-46184372D01*
X334192240Y-46191479D01*
X334042779Y-46198663D01*
X333893355Y-46205926D01*
X333743967Y-46213268D01*
X333594617Y-46220687D01*
X333445303Y-46228185D01*
X333296027Y-46235761D01*
X333146788Y-46243415D01*
X332997587Y-46251146D01*
X332848424Y-46258957D01*
X332699299Y-46266845D01*
X332550213Y-46274811D01*
X332401165Y-46282855D01*
X332252156Y-46290977D01*
X332103186Y-46299176D01*
X331954255Y-46307454D01*
X331805364Y-46315810D01*
X331656512Y-46324243D01*
X331507701Y-46332754D01*
X331358930Y-46341343D01*
X331210199Y-46350010D01*
X331061509Y-46358754D01*
X330912860Y-46367576D01*
X330764252Y-46376475D01*
X330615685Y-46385452D01*
X330467160Y-46394507D01*
X330318677Y-46403639D01*
X330170236Y-46412849D01*
X330021838Y-46422136D01*
X329873482Y-46431500D01*
X329725168Y-46440942D01*
X329576898Y-46450461D01*
X329428672Y-46460057D01*
X329280489Y-46469731D01*
X329132349Y-46479482D01*
X328984254Y-46489310D01*
X328836203Y-46499215D01*
X328688197Y-46509197D01*
X328540236Y-46519257D01*
X328392320Y-46529393D01*
X328244449Y-46539606D01*
X328096624Y-46549897D01*
X327948845Y-46560264D01*
X327801111Y-46570708D01*
X327653425Y-46581229D01*
X327505785Y-46591826D01*
X327358192Y-46602501D01*
X327210646Y-46613252D01*
X327063148Y-46624080D01*
X326915697Y-46634984D01*
X326768295Y-46645965D01*
X326620941Y-46657022D01*
X326473636Y-46668156D01*
X326326379Y-46679367D01*
X326179172Y-46690653D01*
X326032014Y-46702016D01*
X325884905Y-46713456D01*
X325737847Y-46724971D01*
X325590839Y-46736563D01*
X325443882Y-46748231D01*
X325296976Y-46759975D01*
X325150121Y-46771795D01*
X325003317Y-46783692D01*
X324856565Y-46795664D01*
X324709865Y-46807712D01*
X324563217Y-46819836D01*
X324416622Y-46832035D01*
X324270080Y-46844311D01*
X324123592Y-46856662D01*
X323977157Y-46869089D01*
X323830775Y-46881592D01*
X323684448Y-46894170D01*
X323538176Y-46906823D01*
X323391958Y-46919552D01*
X323245795Y-46932357D01*
X323099688Y-46945236D01*
X322953637Y-46958191D01*
X322807641Y-46971222D01*
X322661702Y-46984327D01*
X322515820Y-46997508D01*
X322369995Y-47010763D01*
X322224227Y-47024094D01*
X322078517Y-47037500D01*
X321932864Y-47050980D01*
X321787271Y-47064535D01*
X321641736Y-47078166D01*
X321496260Y-47091870D01*
X321350843Y-47105650D01*
X321205486Y-47119504D01*
X321060189Y-47133432D01*
X320914953Y-47147436D01*
X320769777Y-47161513D01*
X320624662Y-47175665D01*
X320479609Y-47189891D01*
X320334618Y-47204191D01*
X320189688Y-47218565D01*
X320044822Y-47233014D01*
X319900018Y-47247536D01*
X319755277Y-47262133D01*
X319610600Y-47276803D01*
X319465987Y-47291547D01*
X319321439Y-47306365D01*
X319176955Y-47321257D01*
X319032536Y-47336222D01*
X318888183Y-47351260D01*
X318743895Y-47366373D01*
X318599674Y-47381558D01*
X318455519Y-47396817D01*
X318311432Y-47412149D01*
X318167411Y-47427554D01*
X318023459Y-47443032D01*
X317879575Y-47458584D01*
X317735759Y-47474208D01*
X317592012Y-47489905D01*
X317448335Y-47505675D01*
X317304727Y-47521517D01*
X317161190Y-47537433D01*
X317017723Y-47553420D01*
X316874327Y-47569481D01*
X316731002Y-47585613D01*
X316587750Y-47601818D01*
X316444569Y-47618095D01*
X316301462Y-47634444D01*
X316158427Y-47650866D01*
X316015466Y-47667359D01*
X315872579Y-47683924D01*
X315729766Y-47700561D01*
X315587028Y-47717269D01*
X315444365Y-47734050D01*
X315301779Y-47750901D01*
X315159268Y-47767824D01*
X315016834Y-47784819D01*
X314874476Y-47801885D01*
X314732197Y-47819021D01*
X314589995Y-47836229D01*
X314447872Y-47853508D01*
X314305828Y-47870858D01*
X314163863Y-47888278D01*
X314021978Y-47905770D01*
X313880173Y-47923331D01*
X313738449Y-47940964D01*
X313596806Y-47958666D01*
X313455245Y-47976439D01*
X313313766Y-47994282D01*
X313172370Y-48012195D01*
X313031058Y-48030178D01*
X312889828Y-48048231D01*
X312748684Y-48066354D01*
X312607624Y-48084546D01*
X312466649Y-48102808D01*
X312325759Y-48121139D01*
X312184957Y-48139540D01*
X312044240Y-48158009D01*
X311903612Y-48176548D01*
X311763071Y-48195156D01*
X311622618Y-48213833D01*
X311482254Y-48232578D01*
X311341980Y-48251392D01*
X311201796Y-48270275D01*
X311061702Y-48289226D01*
X310921699Y-48308245D01*
X310781788Y-48327332D01*
X310641970Y-48346488D01*
X310502243Y-48365711D01*
X310362611Y-48385002D01*
X310223072Y-48404361D01*
X310083627Y-48423787D01*
X309944278Y-48443280D01*
X309805024Y-48462841D01*
X309665867Y-48482469D01*
X309526806Y-48502164D01*
X309387843Y-48521926D01*
X309248978Y-48541754D01*
X309110211Y-48561649D01*
X308971544Y-48581610D01*
X308832976Y-48601638D01*
X308694509Y-48621732D01*
X308556144Y-48641892D01*
X308417879Y-48662118D01*
X308279718Y-48682409D01*
X308141659Y-48702766D01*
X308003704Y-48723189D01*
X307865853Y-48743677D01*
X307728107Y-48764229D01*
X307590467Y-48784847D01*
X307452933Y-48805530D01*
X307315506Y-48826277D01*
X307178187Y-48847089D01*
X307040976Y-48867965D01*
X306903875Y-48888905D01*
X306766883Y-48909910D01*
X306630001Y-48930978D01*
X306493231Y-48952109D01*
X306356572Y-48973305D01*
X306220026Y-48994563D01*
X306083593Y-49015885D01*
X305947274Y-49037270D01*
X305811071Y-49058717D01*
X305674982Y-49080227D01*
X305539010Y-49101800D01*
X305403155Y-49123435D01*
X305267418Y-49145132D01*
X305131799Y-49166891D01*
X304996300Y-49188711D01*
X304860920Y-49210593D01*
X304725662Y-49232536D01*
X304590525Y-49254541D01*
X304455511Y-49276606D01*
X304320620Y-49298732D01*
X304185854Y-49320919D01*
X304051212Y-49343166D01*
X303916696Y-49365473D01*
X303782307Y-49387840D01*
X303648046Y-49410266D01*
X303513912Y-49432752D01*
X303379908Y-49455298D01*
X303246034Y-49477902D01*
X303112291Y-49500565D01*
X302978680Y-49523287D01*
X302845202Y-49546068D01*
X302711857Y-49568906D01*
X302578647Y-49591802D01*
X302445572Y-49614756D01*
X302312634Y-49637768D01*
X302179834Y-49660836D01*
X302047171Y-49683962D01*
X301914648Y-49707144D01*
X301782265Y-49730383D01*
X301650024Y-49753678D01*
X301517925Y-49777029D01*
X301385969Y-49800436D01*
X301254157Y-49823898D01*
X301122490Y-49847415D01*
X300990970Y-49870987D01*
X300859597Y-49894614D01*
X300728372Y-49918295D01*
X300597297Y-49942031D01*
X300466373Y-49965820D01*
X300335600Y-49989663D01*
X300204979Y-50013559D01*
X300074513Y-50037508D01*
X299944201Y-50061510D01*
X299814046Y-50085564D01*
X299684047Y-50109670D01*
X299554207Y-50133828D01*
X299424527Y-50158037D01*
X299295007Y-50182298D01*
X299165648Y-50206609D01*
X299036453Y-50230971D01*
X298907423Y-50255384D01*
X298778557Y-50279846D01*
X298649859Y-50304357D01*
X298521328Y-50328918D01*
X298392967Y-50353528D01*
X298264776Y-50378186D01*
X298136757Y-50402892D01*
X298008912Y-50427646D01*
X297881240Y-50452448D01*
X297753745Y-50477297D01*
X297626427Y-50502192D01*
X297499287Y-50527134D01*
X297372327Y-50552122D01*
X297245549Y-50577155D01*
X297118953Y-50602234D01*
X296992542Y-50627357D01*
X296866316Y-50652525D01*
X296740278Y-50677736D01*
X296614428Y-50702992D01*
X296488769Y-50728290D01*
X296363301Y-50753631D01*
X296238026Y-50779015D01*
X296112946Y-50804440D01*
X295988063Y-50829907D01*
X295863377Y-50855415D01*
X295738891Y-50880963D01*
X295614607Y-50906552D01*
X295490525Y-50932180D01*
X295366649Y-50957847D01*
X295242978Y-50983553D01*
X295119516Y-51009297D01*
X294996263Y-51035079D01*
X294873223Y-51060898D01*
X294750395Y-51086753D01*
X294627783Y-51112645D01*
X294505389Y-51138572D01*
X294383213Y-51164534D01*
X294261258Y-51190531D01*
X294139526Y-51216562D01*
X294018019Y-51242626D01*
X293896739Y-51268723D01*
X293775688Y-51294852D01*
X293654867Y-51321013D01*
X293534280Y-51347205D01*
X293413928Y-51373428D01*
X293293813Y-51399680D01*
X293173937Y-51425962D01*
X293054303Y-51452272D01*
X292934913Y-51478610D01*
X292815769Y-51504976D01*
X292696874Y-51531368D01*
X292578230Y-51557786D01*
X292459838Y-51584229D01*
X292341702Y-51610697D01*
X292223825Y-51637188D01*
X292106208Y-51663703D01*
X291988854Y-51690240D01*
X291871765Y-51716798D01*
X291754945Y-51743378D01*
X291638396Y-51769977D01*
X291522121Y-51796596D01*
X291406122Y-51823233D01*
X291290402Y-51849887D01*
X291174965Y-51876558D01*
X291059812Y-51903246D01*
X290944947Y-51929948D01*
X290830374Y-51956664D01*
X290716094Y-51983393D01*
X290602111Y-52010135D01*
X290488429Y-52036888D01*
X290375050Y-52063651D01*
X290261978Y-52090424D01*
X290149217Y-52117205D01*
X290036768Y-52143993D01*
X289924637Y-52170788D01*
X289812827Y-52197587D01*
X289701340Y-52224391D01*
X289590182Y-52251198D01*
X289479356Y-52278007D01*
X289368864Y-52304816D01*
X289258713Y-52331625D01*
X289148905Y-52358432D01*
X289039444Y-52385236D01*
X288930336Y-52412036D01*
X288821583Y-52438830D01*
X288713191Y-52465617D01*
X288605163Y-52492397D01*
X288497505Y-52519166D01*
X288390221Y-52545924D01*
X288283316Y-52572670D01*
X288176795Y-52599401D01*
X288070663Y-52626117D01*
X287964924Y-52652816D01*
X287859585Y-52679496D01*
X287754650Y-52706155D01*
X287650125Y-52732793D01*
X287546016Y-52759406D01*
X287442328Y-52785993D01*
X287339068Y-52812553D01*
X287236241Y-52839083D01*
X287133854Y-52865582D01*
X287031913Y-52892047D01*
X286930426Y-52918477D01*
X286829398Y-52944869D01*
X286728837Y-52971221D01*
X286628749Y-52997531D01*
X286529144Y-53023796D01*
X286430027Y-53050015D01*
X286331407Y-53076184D01*
X286233292Y-53102301D01*
X286135691Y-53128363D01*
X286038612Y-53154368D01*
X285942065Y-53180312D01*
X285846058Y-53206194D01*
X285750600Y-53232009D01*
X285655703Y-53257754D01*
X285561376Y-53283427D01*
X285467631Y-53309024D01*
X285374477Y-53334542D01*
X285281927Y-53359976D01*
X285189992Y-53385323D01*
X285098685Y-53410578D01*
X285008020Y-53435739D01*
X284918008Y-53460800D01*
X284828666Y-53485756D01*
X284740006Y-53510604D01*
X284652046Y-53535338D01*
X284564800Y-53559953D01*
X284478285Y-53584444D01*
X284392520Y-53608804D01*
X284307523Y-53633028D01*
X284223314Y-53657110D01*
X284139913Y-53681042D01*
X284057343Y-53704818D01*
X283975625Y-53728430D01*
X283894786Y-53751871D01*
X283814850Y-53775130D01*
X283735847Y-53798201D01*
X283657804Y-53821072D01*
X283580754Y-53843735D01*
X283504732Y-53866176D01*
X283429773Y-53888386D01*
X283355917Y-53910350D01*
X283283207Y-53932054D01*
X283211690Y-53953484D01*
X283141416Y-53974622D01*
X283072443Y-53995451D01*
X283004831Y-54015949D01*
X282938649Y-54036095D01*
X282873975Y-54055862D01*
X282810895Y-54075223D01*
X282749509Y-54094143D01*
X282689931Y-54112587D01*
X282632293Y-54130510D01*
X282576753Y-54147859D01*
X282523502Y-54164572D01*
X282472773Y-54180572D01*
X282424865Y-54195759D01*
X282380171Y-54210002D01*
X282339243Y-54223120D01*
X282302909Y-54234836D01*
X282272594Y-54244677D01*
X282251411Y-54251605D01*
X282246875Y-54253099D01*
D10*
X147628125Y-54300000D02*
X166859375Y-54300000D01*
X190615625Y-143103125D02*
G75*
G02*
X191181250Y-142537425I565575J125D01*
G01*
X283943750Y-130046849D02*
X334284375Y-130046849D01*
X337678125Y-142490599D02*
G75*
G02*
X336546901Y-141359361I-25J1131199D01*
G01*
X281115625Y-92762500D02*
G75*
G02*
X282246875Y-92762500I565625J0D01*
G01*
X147990484Y-133030080D02*
X152318448Y-150715067D01*
X415734375Y-54253099D02*
G75*
G02*
X416865601Y-55384349I25J-1131201D01*
G01*
X190050000Y-143668750D02*
X173646875Y-143668750D01*
X281115625Y-126700000D02*
G75*
G02*
X282246875Y-126700000I565625J0D01*
G01*
X263015677Y-53781386D02*
G75*
G02*
X258615677Y-53781386I-2200000J0D01*
G01*
X258615677Y-53781386D02*
G75*
G02*
X263015677Y-53781386I2200000J0D01*
G01*
X190615625Y-143103125D02*
G75*
G02*
X190050000Y-143668725I-565625J25D01*
G01*
X281115625Y-54300000D02*
X281115625Y-55996875D01*
X282246875Y-128349974D02*
X282246875Y-126700000D01*
X279418750Y-130093750D02*
X229078125Y-130093750D01*
X373312500Y-143621849D02*
X389715625Y-143621849D01*
X396503125Y-54253099D02*
G75*
G02*
X395371901Y-53121849I-25J1131199D01*
G01*
X282246875Y-58825000D02*
X282246875Y-89934375D01*
X336546875Y-132309336D02*
X336546875Y-141359361D01*
X389715625Y-143621849D02*
X391725526Y-145491819D01*
X211543802Y-121656386D02*
G75*
G02*
X207143802Y-121656386I-2200000J0D01*
G01*
X207143802Y-121656386D02*
G75*
G02*
X211543802Y-121656386I2200000J0D01*
G01*
X416865625Y-76878099D02*
X416865625Y-55384349D01*
X226815625Y-141406262D02*
G75*
G02*
X225684375Y-142537425I-1131325J162D01*
G01*
X337678125Y-142490599D02*
X372181250Y-142490599D01*
X282246875Y-55996875D02*
G75*
G02*
X281115625Y-55996875I-565625J0D01*
G01*
X146496875Y-55431250D02*
G75*
G02*
X147628125Y-54299975I1131225J50D01*
G01*
X414603125Y-79140599D02*
G75*
G02*
X415734375Y-78009325I1131275J-1D01*
G01*
X147628125Y-78056250D02*
G75*
G02*
X148759350Y-79187500I-25J-1131250D01*
G01*
X167990625Y-49775000D02*
X167990625Y-53168750D01*
X148759375Y-131137715D02*
X148759375Y-79187500D01*
X152318448Y-150715067D02*
X171636974Y-145538720D01*
M02*
